<svg width="22" height="22" viewBox="0 0 22 22" fill="none" xmlns="http://www.w3.org/2000/svg">
<path id="Vector" d="M12.0794 0.5C13.2606 0.50315 13.8601 0.50945 14.3777 0.524149L14.5814 0.531499C14.8166 0.539899 15.0487 0.550399 15.329 0.562998C16.4461 0.615497 17.2084 0.791893 17.8772 1.05124C18.5702 1.31793 19.154 1.67912 19.7377 2.26186C20.2718 2.78656 20.685 3.42153 20.9483 4.12241C21.2077 4.79125 21.384 5.55353 21.4365 6.67175C21.4491 6.95104 21.4596 7.18309 21.468 7.41933L21.4743 7.62303C21.4901 8.13962 21.4964 8.73915 21.4985 9.92037L21.4995 10.7037V12.0791C21.5021 12.845 21.494 13.6108 21.4754 14.3765L21.4691 14.5802C21.4607 14.8164 21.4502 15.0484 21.4376 15.3277C21.3851 16.446 21.2066 17.2072 20.9483 17.8771C20.685 18.578 20.2718 19.2129 19.7377 19.7376C19.213 20.2717 18.5781 20.6849 17.8772 20.9483C17.2084 21.2076 16.4461 21.384 15.329 21.4365L14.5814 21.468L14.3777 21.4743C13.8601 21.489 13.2606 21.4963 12.0794 21.4984L11.2962 21.4995H9.92177C9.15558 21.5022 8.3894 21.4941 7.62344 21.4753L7.41975 21.469C7.1705 21.4596 6.92131 21.4488 6.67219 21.4365C5.55504 21.384 4.79278 21.2076 4.12291 20.9483C3.42242 20.6848 2.78785 20.2716 2.26346 19.7376C1.72898 19.213 1.31547 18.5781 1.05182 17.8771C0.792483 17.2082 0.616091 16.446 0.563594 15.3277L0.532096 14.5802L0.526846 14.3765C0.507491 13.6108 0.498741 12.845 0.500597 12.0791V9.92037C0.497691 9.15452 0.505391 8.38867 0.523696 7.62303L0.531046 7.41933C0.539445 7.18309 0.549945 6.95104 0.562544 6.67175C0.615041 5.55353 0.791432 4.7923 1.05077 4.12241C1.31504 3.42124 1.72927 2.78625 2.26451 2.26186C2.78859 1.728 3.4228 1.31486 4.12291 1.05124C4.79278 0.791893 5.55399 0.615497 6.67219 0.562998C6.95147 0.550399 7.18456 0.539899 7.41975 0.531499L7.62344 0.525199C8.38905 0.506544 9.15489 0.498494 9.92072 0.50105L12.0794 0.5ZM11.0001 5.74987C9.60775 5.74987 8.27246 6.30298 7.28794 7.28753C6.30343 8.27207 5.75033 9.60739 5.75033 10.9997C5.75033 12.3921 6.30343 13.7274 7.28794 14.712C8.27246 15.6965 9.60775 16.2496 11.0001 16.2496C12.3924 16.2496 13.7277 15.6965 14.7122 14.712C15.6967 13.7274 16.2498 12.3921 16.2498 10.9997C16.2498 9.60739 15.6967 8.27207 14.7122 7.28753C13.7277 6.30298 12.3924 5.74987 11.0001 5.74987ZM11.0001 7.84982C11.4137 7.84975 11.8233 7.93116 12.2055 8.0894C12.5877 8.24763 12.935 8.47959 13.2275 8.77204C13.52 9.06449 13.7521 9.4117 13.9105 9.79384C14.0688 10.176 14.1504 10.5856 14.1504 10.9992C14.1505 11.4129 14.0691 11.8225 13.9109 12.2047C13.7526 12.5869 13.5207 12.9342 13.2282 13.2267C12.9358 13.5193 12.5886 13.7513 12.2065 13.9097C11.8243 14.0681 11.4148 14.1496 11.0011 14.1497C10.1657 14.1497 9.36455 13.8178 8.77384 13.2271C8.18313 12.6364 7.85128 11.8352 7.85128 10.9997C7.85128 10.1643 8.18313 9.36314 8.77384 8.77241C9.36455 8.18169 10.1657 7.84982 11.0011 7.84982M16.5133 4.17491C16.1653 4.17491 15.8314 4.31319 15.5853 4.55932C15.3392 4.80546 15.2009 5.13929 15.2009 5.48738C15.2009 5.83547 15.3392 6.1693 15.5853 6.41543C15.8314 6.66157 16.1653 6.79985 16.5133 6.79985C16.8614 6.79985 17.1952 6.66157 17.4414 6.41543C17.6875 6.1693 17.8258 5.83547 17.8258 5.48738C17.8258 5.13929 17.6875 4.80546 17.4414 4.55932C17.1952 4.31319 16.8614 4.17491 16.5133 4.17491Z" fill="#F08234"/>
</svg>
