<svg width="21" height="26" viewBox="0 0 21 26" fill="none" xmlns="http://www.w3.org/2000/svg">
<g id="Group">
<path id="Vector" d="M10.6316 0.523804C8.53204 0.523804 6.5185 1.35784 5.03392 2.84242C3.54933 4.32701 2.7153 6.34054 2.7153 8.44007V12.4299C2.71546 12.6053 2.67481 12.7784 2.59655 12.9354L0.654805 16.8177C0.559953 17.0074 0.515165 17.2182 0.524694 17.43C0.534224 17.6419 0.597754 17.8478 0.709252 18.0282C0.82075 18.2086 0.976514 18.3575 1.16175 18.4607C1.34698 18.564 1.55554 18.6182 1.76761 18.6181H19.4955C19.7076 18.6182 19.9161 18.564 20.1014 18.4607C20.2866 18.3575 20.4424 18.2086 20.5539 18.0282C20.6654 17.8478 20.7289 17.6419 20.7384 17.43C20.748 17.2182 20.7032 17.0074 20.6083 16.8177L18.6677 12.9354C18.5891 12.7785 18.548 12.6054 18.5478 12.4299V8.44007C18.5478 6.34054 17.7138 4.32701 16.2292 2.84242C14.7446 1.35784 12.7311 0.523804 10.6316 0.523804ZM10.6316 22.0108C9.92967 22.0112 9.24494 21.7938 8.67174 21.3888C8.09854 20.9837 7.66509 20.4108 7.43113 19.749H13.832C13.598 20.4108 13.1646 20.9837 12.5914 21.3888C12.0182 21.7938 11.3335 22.0112 10.6316 22.0108Z" fill="#000230"/>
</g>
</svg>
