<svg width="23" height="15" viewBox="0 0 23 15" fill="none" xmlns="http://www.w3.org/2000/svg">
<path id="Vector" d="M11.9756 4.5C11.18 4.5 10.4169 4.81607 9.8543 5.37868C9.29169 5.94129 8.97562 6.70435 8.97562 7.5C8.97562 8.29565 9.29169 9.05871 9.8543 9.62132C10.4169 10.1839 11.18 10.5 11.9756 10.5C12.7713 10.5 13.5343 10.1839 14.0969 9.62132C14.6595 9.05871 14.9756 8.29565 14.9756 7.5C14.9756 6.70435 14.6595 5.94129 14.0969 5.37868C13.5343 4.81607 12.7713 4.5 11.9756 4.5ZM11.9756 12.5C10.6495 12.5 9.37776 11.9732 8.44008 11.0355C7.5024 10.0979 6.97562 8.82608 6.97562 7.5C6.97562 6.17392 7.5024 4.90215 8.44008 3.96447C9.37776 3.02678 10.6495 2.5 11.9756 2.5C13.3017 2.5 14.5735 3.02678 15.5112 3.96447C16.4488 4.90215 16.9756 6.17392 16.9756 7.5C16.9756 8.82608 16.4488 10.0979 15.5112 11.0355C14.5735 11.9732 13.3017 12.5 11.9756 12.5ZM11.9756 0C6.97562 0 2.70562 3.11 0.975616 7.5C2.70562 11.89 6.97562 15 11.9756 15C16.9756 15 21.2456 11.89 22.9756 7.5C21.2456 3.11 16.9756 0 11.9756 0Z" fill="#000230"/>
</svg>
