<svg width="28" height="21" viewBox="0 0 28 21" fill="none" xmlns="http://www.w3.org/2000/svg">
<path id="Vector" d="M10.315 15.0057C9.8358 15.4728 9.8358 16.324 10.315 16.7911C10.7943 17.2582 11.6677 17.2582 12.1469 16.7911L20.4344 8.71412C21.4806 7.69446 23.0938 7.69446 24.0982 8.71412C25.1444 9.73509 25.1444 11.3073 24.0982 12.2849L15.9849 20.2343C17.0325 21.2552 18.6457 21.2552 19.6487 20.2343L25.9733 14.0703C27.9807 12.1152 27.9807 8.88384 25.9733 6.84321C23.9673 4.8881 20.6517 4.8881 18.5593 6.84321L10.315 15.0057ZM23.2261 9.60747C22.7455 9.13909 21.8735 9.13909 21.3942 9.60747L13.1054 17.7253C12.0592 18.7462 10.446 18.7462 9.44297 17.7253C8.96238 17.2582 8.0903 17.2582 7.61106 17.7253C7.13047 18.1936 7.13047 19.0436 7.61106 19.512C9.61711 21.4671 12.9326 21.4671 15.0251 19.512L23.2693 11.435C23.7054 10.9245 23.7054 10.0759 23.2261 9.60747ZM9.39842 14.0703L17.6872 5.99328C18.1664 5.52621 18.1664 4.67628 17.6872 4.20789C17.2066 3.74083 16.3345 3.74083 15.854 4.20789L7.52466 12.2862C6.47709 13.3059 4.86253 13.3059 3.8595 12.2862C3.61052 12.0475 3.41278 11.7628 3.27781 11.4488C3.14283 11.1348 3.07332 10.7978 3.07332 10.4574C3.07332 10.117 3.14283 9.77997 3.27781 9.46599C3.41278 9.15201 3.61052 8.86735 3.8595 8.6286L11.9728 0.764743C10.9252 -0.254914 9.31202 -0.254914 8.30899 0.764743L1.9844 6.92873C-0.0229986 8.88384 -0.0229986 12.1152 1.9844 14.1558C3.99045 16.1109 7.39237 16.1109 9.39842 14.0703ZM4.81933 11.3942C5.29857 11.8612 6.17065 11.8612 6.65123 11.3942L14.9819 3.31586C16.0295 2.2962 17.6427 2.2962 18.6457 3.31586C19.1263 3.78424 19.9984 3.78424 20.4776 3.31586C20.9582 2.84879 20.9582 2.00017 20.4776 1.53179C18.4715 -0.424638 15.156 -0.424638 13.0636 1.53179L4.77478 9.60879C4.6486 9.72412 4.54884 9.86412 4.48202 10.0196C4.4152 10.1751 4.38284 10.3427 4.38704 10.5112C4.39125 10.6797 4.43193 10.8455 4.50642 10.9977C4.58092 11.1498 4.68755 11.285 4.81933 11.3942Z" fill="black"/>
</svg>
