<svg width="19" height="20" viewBox="0 0 19 20" fill="none" xmlns="http://www.w3.org/2000/svg">
<path id="Vector" d="M9.5 0.5C12.0196 0.5 14.4359 1.50089 16.2175 3.28249C17.9991 5.06408 19 7.48044 19 10C19 12.5196 17.9991 14.9359 16.2175 16.7175C14.4359 18.4991 12.0196 19.5 9.5 19.5C6.98044 19.5 4.56408 18.4991 2.78249 16.7175C1.00089 14.9359 0 12.5196 0 10C0 7.48044 1.00089 5.06408 2.78249 3.28249C4.56408 1.50089 6.98044 0.5 9.5 0.5ZM10.0035 4.56057C8.89879 4.56057 8.03293 4.87407 7.391 5.50107C6.73414 6.12807 6.42064 6.99393 6.42064 8.09864H8.1225C8.1225 7.47164 8.24193 6.979 8.49571 6.63564C8.77936 6.21764 9.24214 6.02357 9.899 6.02357C10.4066 6.02357 10.8096 6.15793 11.0933 6.44157C11.362 6.72521 11.5113 7.11336 11.5113 7.606C11.5113 7.97921 11.3769 8.3375 11.1082 8.66593L10.9291 8.87493C9.95871 9.74079 9.3765 10.3678 9.18243 10.7709C8.97343 11.1739 8.88386 11.6666 8.88386 12.2339V12.4429H10.6006V12.2339C10.6006 11.8756 10.6753 11.5621 10.8246 11.2635C10.9589 10.9948 11.153 10.741 11.4217 10.5171C12.1383 9.89007 12.5712 9.487 12.7056 9.33771C13.0639 8.86 13.2579 8.24793 13.2579 7.5015C13.2579 6.59086 12.9594 5.87429 12.3622 5.35179C11.7651 4.81436 10.9739 4.56057 10.0035 4.56057ZM9.73479 13.1744C9.4304 13.1661 9.13515 13.2788 8.91371 13.4879C8.80438 13.5908 8.71847 13.7161 8.6618 13.8552C8.60513 13.9943 8.57904 14.1439 8.58529 14.294C8.58529 14.6224 8.68979 14.8911 8.91371 15.1001C9.13349 15.3135 9.42853 15.4315 9.73479 15.4286C10.0632 15.4286 10.3319 15.3241 10.5559 15.1151C10.6675 15.01 10.7558 14.8825 10.8149 14.7411C10.8741 14.5996 10.9028 14.4473 10.8992 14.294C10.9021 14.1444 10.8744 13.9957 10.818 13.8571C10.7615 13.7185 10.6774 13.5929 10.5708 13.4879C10.3436 13.2785 10.0436 13.166 9.73479 13.1744Z" fill="black"/>
</svg>
