<svg width="20" height="17" viewBox="0 0 20 17" fill="none" xmlns="http://www.w3.org/2000/svg">
<path d="M20 4.035V13.5C20 14.2652 19.7077 15.0015 19.1827 15.5583C18.6578 16.115 17.9399 16.4501 17.176 16.495L17 16.5H3C2.23479 16.5 1.49849 16.2077 0.941739 15.6827C0.384993 15.1578 0.0498925 14.4399 0.00500011 13.676L0 13.5V4.035L9.445 10.332L9.561 10.398C9.69771 10.4648 9.84785 10.4995 10 10.4995C10.1522 10.4995 10.3023 10.4648 10.439 10.398L10.555 10.332L20 4.035Z" fill="#D9D9D9"/>
<path d="M17 0.500008C18.08 0.500008 19.027 1.07001 19.555 1.92701L9.99998 8.29701L0.444975 1.92701C0.695767 1.51983 1.04027 1.17851 1.44975 0.931497C1.85923 0.684486 2.32183 0.538945 2.79897 0.507008L2.99997 0.500008H17Z" fill="#D9D9D9"/>
</svg>
