<svg width="25" height="23" viewBox="0 0 25 23" fill="none" xmlns="http://www.w3.org/2000/svg">
<g id="devicon:google">
<path id="Vector" d="M8.62759 0.756458C6.42945 1.55367 4.53377 3.06682 3.21901 5.07363C1.90425 7.08045 1.2397 9.47515 1.32297 11.906C1.40625 14.3369 2.23296 16.6757 3.68167 18.5791C5.13039 20.4824 7.12475 21.8499 9.37181 22.4807C11.1936 22.9721 13.1022 22.9937 14.9337 22.5436C16.5928 22.1539 18.1267 21.3205 19.3852 20.125C20.6951 18.8426 21.6458 17.2113 22.1352 15.4064C22.6672 13.4436 22.7619 11.3795 22.412 9.37247H12.182V13.809H18.1065C17.9881 14.5165 17.7344 15.1919 17.3605 15.7946C16.9866 16.3972 16.5003 16.9149 15.9306 17.3165C15.2071 17.8168 14.3916 18.1534 13.5363 18.3047C12.6786 18.4715 11.7988 18.4715 10.941 18.3047C10.0717 18.1168 9.24926 17.7417 8.52618 17.2033C7.36456 16.3436 6.49234 15.1223 6.03399 13.7137C5.56789 12.2787 5.56789 10.723 6.03399 9.28802C6.36026 8.28216 6.89961 7.36633 7.61181 6.60888C8.42682 5.72616 9.45866 5.09519 10.5941 4.78519C11.7296 4.47519 12.9247 4.49815 14.0485 4.85154C14.9264 5.13327 15.7292 5.62552 16.3929 6.28904C17.0609 5.59424 17.7278 4.89766 18.3935 4.19927C18.7373 3.82372 19.112 3.46615 19.4506 3.08161C18.4375 2.09599 17.2483 1.32904 15.9512 0.824739C13.5891 -0.0719195 11.0046 -0.0960164 8.62759 0.756458Z" fill="white"/>
<path id="Vector_2" d="M8.62759 0.756477C11.0044 -0.096577 13.5889 -0.0731145 15.9512 0.822961C17.2485 1.33069 18.4372 2.10133 19.4488 3.09062C19.1051 3.47515 18.7424 3.83452 18.3918 4.20827C17.7249 4.90426 17.0586 5.59786 16.3929 6.28905C15.7292 5.62554 14.9264 5.13329 14.0485 4.85155C12.9251 4.49693 11.73 4.47264 10.5942 4.78137C9.45847 5.0901 8.426 5.71992 7.61009 6.60171C6.8979 7.35916 6.35854 8.27499 6.03228 9.28085L2.46931 6.39687C3.74463 3.75288 5.95278 1.73043 8.62759 0.756477Z" fill="#E33629"/>
<path id="Vector_3" d="M1.524 9.25394C1.7155 8.2617 2.03344 7.30079 2.46931 6.39691L6.03228 9.28808C5.56618 10.7231 5.56618 12.2788 6.03228 13.7138C4.84519 14.6721 3.65754 15.6352 2.46931 16.6032C1.37816 14.3325 1.04538 11.7453 1.524 9.25394Z" fill="#F8BD00"/>
<path id="Vector_4" d="M12.182 9.37067H22.412C22.7619 11.3777 22.6672 13.4418 22.1352 15.4046C21.6458 17.2095 20.6951 18.8408 19.3852 20.1232C18.2354 19.1852 17.0804 18.2544 15.9306 17.3164C16.5006 16.9144 16.9872 16.3963 17.3611 15.7929C17.735 15.1896 17.9885 14.5136 18.1065 13.8054H12.182C12.1802 12.3283 12.182 10.8495 12.182 9.37067Z" fill="#587DBD"/>
<path id="Vector_5" d="M2.46759 16.6031C3.65582 15.6448 4.84348 14.6817 6.03056 13.7137C6.48982 15.1229 7.36329 16.3442 8.52618 17.2033C9.25151 17.7392 10.0757 18.1113 10.9462 18.2958C11.8039 18.4625 12.6837 18.4625 13.5415 18.2958C14.3967 18.1444 15.2123 17.8078 15.9357 17.3075C17.0856 18.2455 18.2406 19.1762 19.3904 20.1142C18.1321 21.3104 16.5982 22.1445 14.9388 22.5346C13.1074 22.9847 11.1987 22.9632 9.37697 22.4717C7.93614 22.0695 6.59031 21.3605 5.42384 20.3891C4.1892 19.3644 3.18079 18.0729 2.46759 16.6031Z" fill="#319F43"/>
</g>
</svg>
