<svg width="22" height="22" viewBox="0 0 22 22" fill="none" xmlns="http://www.w3.org/2000/svg">
<path id="Vector" fill-rule="evenodd" clip-rule="evenodd" d="M8.1719 7.6659H12.2573V9.7009C12.8458 8.5305 14.355 7.4789 16.6221 7.4789C20.9682 7.4789 22 9.8087 22 14.0833V22H17.6V15.0568C17.6 12.6225 17.0115 11.2497 15.5133 11.2497C13.4354 11.2497 12.5719 12.7292 12.5719 15.0557V22H8.1719V7.6659ZM0.627 21.813H5.027V7.4789H0.627V21.813ZM5.6573 2.805C5.65746 3.1738 5.58432 3.53896 5.44213 3.87925C5.29993 4.21953 5.09152 4.52816 4.829 4.7872C4.5657 5.04913 4.25338 5.25661 3.90987 5.39779C3.56635 5.53897 3.19839 5.61108 2.827 5.61C2.07856 5.60832 1.36061 5.31332 0.8272 4.7883C0.56573 4.52831 0.358085 4.21932 0.216146 3.87901C0.0742063 3.53869 0.00075704 3.17373 0 2.805C0 2.0603 0.297 1.3475 0.8283 0.821701C1.36037 0.294671 2.07919 -0.000686536 2.8281 1.19834e-06C3.5783 1.19834e-06 4.2977 0.295901 4.829 0.821701C5.3603 1.3475 5.6573 2.0603 5.6573 2.805Z" fill="#F08234"/>
</svg>
