<svg width="26" height="20" viewBox="0 0 26 20" fill="none" xmlns="http://www.w3.org/2000/svg">
<path id="Vector" d="M5.42168 14.2356C4.8698 13.8308 4.4204 13.3123 4.10214 12.7208C4.65479 12.7388 5.20879 12.6749 5.74532 12.5297L5.71084 11.5564C3.83944 11.1898 2.3788 9.70187 2.066 7.84139C2.6136 8.03128 3.20704 8.14706 3.83413 8.14706H5.55082L4.10261 7.22526C2.85821 6.43318 2.05163 5.03804 2.05163 3.45882C2.05163 2.88419 2.16091 2.33079 2.36092 1.82336C4.95706 4.65192 8.65928 6.49407 12.7839 6.69938L13.4439 6.73223L13.2961 6.08822C13.2204 5.75815 13.1773 5.40742 13.1773 5.04706C13.1773 2.54081 15.2421 0.5 17.7801 0.5C19.1508 0.5 20.3437 1.03328 21.1908 1.94111L21.3817 2.14566L21.6559 2.09001C22.3554 1.948 23.0358 1.7441 23.687 1.47777C23.3185 1.98478 22.8475 2.41312 22.3052 2.73462L22.6227 3.66079C23.0951 3.6013 23.561 3.51318 24.0171 3.39624C23.6006 3.82976 23.1454 4.22262 22.655 4.56747L22.4286 4.72671L22.4434 5.00317C22.4545 5.21126 22.4546 5.40991 22.4546 5.63529C22.4546 12.0828 17.4538 19.5 8.36329 19.5C6.29886 19.5 4.33597 19.0596 2.5671 18.2707C4.68645 18.1141 6.71807 17.3373 8.39581 16.0297L9.51062 15.1607L8.09741 15.1354C7.13105 15.118 6.19531 14.803 5.42168 14.2356ZM1.71654 18.3C1.71694 18.3 1.71734 18.3 1.71775 18.3L1.71865 17.8578L1.71654 18.3Z" fill="#F08234" stroke="#F08234"/>
</svg>
