<svg width="199" height="60" viewBox="0 0 199 60" fill="none" xmlns="http://www.w3.org/2000/svg">
<rect width="199" height="60" rx="5" fill="#000230"/>
<path fill-rule="evenodd" clip-rule="evenodd" d="M40.0136 45.6732L39.011 47.3678C38.1174 48.8774 35.8844 48.8774 34.989 47.3678L33.9864 45.6732C33.2094 44.3597 32.8209 43.7011 32.1955 43.3385C31.5702 42.974 30.784 42.9611 29.2115 42.9333C26.8879 42.8945 25.432 42.7521 24.2109 42.2451C23.0887 41.7803 22.069 41.0989 21.21 40.24C20.3511 39.381 19.6697 38.3613 19.2049 37.239C18.5 35.5408 18.5 33.3855 18.5 29.075V27.225C18.5 21.17 18.5 18.1415 19.8635 15.9178C20.6257 14.6731 21.6717 13.6265 22.916 12.8635C25.1415 11.5 28.1718 11.5 34.225 11.5H39.775C45.83 11.5 48.8585 11.5 51.0841 12.8635C52.3281 13.626 53.374 14.6719 54.1366 15.916C55.5 18.1415 55.5 21.1718 55.5 27.225V29.075C55.5 33.3855 55.5 35.5408 54.797 37.239C54.3319 38.3615 53.6503 39.3813 52.791 40.2403C51.9317 41.0992 50.9117 41.7805 49.7891 42.2451C48.5681 42.7521 47.1121 42.8926 44.7885 42.9333C43.216 42.9611 42.4298 42.974 41.8045 43.3385C41.1792 43.7011 40.7906 44.3579 40.0136 45.6732ZM29.6 29.5375C29.232 29.5375 28.8791 29.6837 28.6189 29.9439C28.3587 30.2041 28.2125 30.557 28.2125 30.925C28.2125 31.293 28.3587 31.6459 28.6189 31.9061C28.8791 32.1663 29.232 32.3125 29.6 32.3125H39.775C40.143 32.3125 40.4959 32.1663 40.7561 31.9061C41.0163 31.6459 41.1625 31.293 41.1625 30.925C41.1625 30.557 41.0163 30.2041 40.7561 29.9439C40.4959 29.6837 40.143 29.5375 39.775 29.5375H29.6ZM28.2125 24.45C28.2125 24.082 28.3587 23.7291 28.6189 23.4689C28.8791 23.2087 29.232 23.0625 29.6 23.0625H44.4C44.768 23.0625 45.1209 23.2087 45.3811 23.4689C45.6413 23.7291 45.7875 24.082 45.7875 24.45C45.7875 24.818 45.6413 25.1709 45.3811 25.4311C45.1209 25.6913 44.768 25.8375 44.4 25.8375H29.6C29.232 25.8375 28.8791 25.6913 28.6189 25.4311C28.3587 25.1709 28.2125 24.818 28.2125 24.45Z" fill="#F08234"/>
<path d="M87.957 35.4688V38H79.3789V35.4688H87.957ZM80.3516 20.9375V38H77.1289V20.9375H80.3516ZM93.1602 25.3203V38H90.0547V25.3203H93.1602ZM89.8438 22.0039C89.8438 21.543 90 21.1602 90.3125 20.8555C90.6328 20.5508 91.0625 20.3984 91.6016 20.3984C92.1406 20.3984 92.5664 20.5508 92.8789 20.8555C93.1992 21.1602 93.3594 21.543 93.3594 22.0039C93.3594 22.457 93.1992 22.8359 92.8789 23.1406C92.5664 23.4453 92.1406 23.5977 91.6016 23.5977C91.0625 23.5977 90.6328 23.4453 90.3125 23.1406C90 22.8359 89.8438 22.457 89.8438 22.0039ZM100.32 35.6562L103.273 25.3203H106.508L102.16 38H100.191L100.32 35.6562ZM98.1641 25.3203L101.152 35.6797L101.258 38H99.2773L94.918 25.3203H98.1641ZM113.668 38.2344C112.707 38.2344 111.844 38.0781 111.078 37.7656C110.312 37.4531 109.66 37.0195 109.121 36.4648C108.59 35.9023 108.18 35.25 107.891 34.5078C107.609 33.7578 107.469 32.9531 107.469 32.0938V31.625C107.469 30.6484 107.609 29.7617 107.891 28.9648C108.172 28.1602 108.57 27.4688 109.086 26.8906C109.602 26.3125 110.219 25.8672 110.938 25.5547C111.656 25.2422 112.449 25.0859 113.316 25.0859C114.215 25.0859 115.008 25.2383 115.695 25.543C116.383 25.8398 116.957 26.2617 117.418 26.8086C117.879 27.3555 118.227 28.0117 118.461 28.7773C118.695 29.5352 118.812 30.375 118.812 31.2969V32.5977H108.875V30.4648H115.766V30.2305C115.75 29.7383 115.656 29.2891 115.484 28.8828C115.312 28.4688 115.047 28.1406 114.688 27.8984C114.328 27.6484 113.863 27.5234 113.293 27.5234C112.832 27.5234 112.43 27.625 112.086 27.8281C111.75 28.0234 111.469 28.3047 111.242 28.6719C111.023 29.0312 110.859 29.4609 110.75 29.9609C110.641 30.4609 110.586 31.0156 110.586 31.625V32.0938C110.586 32.625 110.656 33.1172 110.797 33.5703C110.945 34.0234 111.16 34.418 111.441 34.7539C111.73 35.082 112.074 35.3398 112.473 35.5273C112.879 35.707 113.34 35.7969 113.855 35.7969C114.504 35.7969 115.09 35.6719 115.613 35.4219C116.145 35.1641 116.605 34.7852 116.996 34.2852L118.555 35.9023C118.289 36.293 117.93 36.668 117.477 37.0273C117.031 37.3867 116.492 37.6797 115.859 37.9062C115.227 38.125 114.496 38.2344 113.668 38.2344ZM137.082 32.3867H140.305C140.219 33.5273 139.902 34.5391 139.355 35.4219C138.809 36.2969 138.047 36.9844 137.07 37.4844C136.094 37.9844 134.91 38.2344 133.52 38.2344C132.449 38.2344 131.484 38.0469 130.625 37.6719C129.773 37.2891 129.043 36.7461 128.434 36.043C127.832 35.332 127.371 34.4805 127.051 33.4883C126.73 32.4883 126.57 31.3672 126.57 30.125V28.8242C126.57 27.582 126.734 26.4609 127.062 25.4609C127.391 24.4609 127.859 23.6094 128.469 22.9062C129.086 22.1953 129.824 21.6484 130.684 21.2656C131.551 20.8828 132.52 20.6914 133.59 20.6914C134.98 20.6914 136.156 20.9492 137.117 21.4648C138.078 21.9727 138.824 22.6719 139.355 23.5625C139.887 24.4531 140.207 25.4766 140.316 26.6328H137.094C137.031 25.9141 136.875 25.3047 136.625 24.8047C136.383 24.3047 136.016 23.9258 135.523 23.668C135.039 23.4023 134.395 23.2695 133.59 23.2695C132.965 23.2695 132.414 23.3867 131.938 23.6211C131.469 23.8555 131.078 24.207 130.766 24.6758C130.453 25.1367 130.219 25.7148 130.062 26.4102C129.906 27.0977 129.828 27.8945 129.828 28.8008V30.125C129.828 30.9922 129.898 31.7695 130.039 32.457C130.18 33.1445 130.398 33.7266 130.695 34.2031C130.992 34.6797 131.375 35.043 131.844 35.293C132.312 35.543 132.871 35.668 133.52 35.668C134.309 35.668 134.949 35.543 135.441 35.293C135.941 35.043 136.32 34.6758 136.578 34.1914C136.844 33.707 137.012 33.1055 137.082 32.3867ZM145.602 20V38H142.496V20H145.602ZM145.109 31.2031H144.195C144.195 30.3203 144.312 29.5078 144.547 28.7656C144.781 28.0234 145.113 27.3789 145.543 26.832C145.973 26.2773 146.484 25.8477 147.078 25.543C147.68 25.2383 148.344 25.0859 149.07 25.0859C149.695 25.0859 150.262 25.1758 150.77 25.3555C151.285 25.5273 151.727 25.8047 152.094 26.1875C152.461 26.5703 152.742 27.0703 152.938 27.6875C153.141 28.2969 153.242 29.0391 153.242 29.9141V38H150.125V29.8906C150.125 29.3047 150.039 28.8438 149.867 28.5078C149.695 28.1641 149.449 27.918 149.129 27.7695C148.816 27.6211 148.43 27.5469 147.969 27.5469C147.469 27.5469 147.039 27.6445 146.68 27.8398C146.32 28.0273 146.023 28.2891 145.789 28.625C145.562 28.9609 145.391 29.3477 145.273 29.7852C145.164 30.2227 145.109 30.6953 145.109 31.2031ZM162.957 35.3047V29.457C162.957 29.0273 162.883 28.6562 162.734 28.3438C162.586 28.0312 162.359 27.7891 162.055 27.6172C161.75 27.4453 161.363 27.3594 160.895 27.3594C160.48 27.3594 160.117 27.4297 159.805 27.5703C159.5 27.7109 159.266 27.9102 159.102 28.168C158.938 28.418 158.855 28.707 158.855 29.0352H155.75C155.75 28.5117 155.875 28.0156 156.125 27.5469C156.375 27.0703 156.73 26.6484 157.191 26.2812C157.66 25.9062 158.219 25.6133 158.867 25.4023C159.523 25.1914 160.258 25.0859 161.07 25.0859C162.031 25.0859 162.887 25.25 163.637 25.5781C164.395 25.8984 164.988 26.3828 165.418 27.0312C165.855 27.6797 166.074 28.4961 166.074 29.4805V35.0117C166.074 35.6445 166.113 36.1875 166.191 36.6406C166.277 37.0859 166.402 37.4727 166.566 37.8008V38H163.414C163.266 37.6797 163.152 37.2734 163.074 36.7812C162.996 36.2812 162.957 35.7891 162.957 35.3047ZM163.391 30.2773L163.414 32.1172H161.457C160.973 32.1172 160.547 32.168 160.18 32.2695C159.812 32.3633 159.512 32.5039 159.277 32.6914C159.043 32.8711 158.867 33.0898 158.75 33.3477C158.633 33.5977 158.574 33.8828 158.574 34.2031C158.574 34.5156 158.645 34.7969 158.785 35.0469C158.934 35.2969 159.145 35.4961 159.418 35.6445C159.699 35.7852 160.027 35.8555 160.402 35.8555C160.949 35.8555 161.426 35.7461 161.832 35.5273C162.238 35.3008 162.555 35.0273 162.781 34.707C163.008 34.3867 163.129 34.082 163.145 33.793L164.035 35.1289C163.926 35.4492 163.762 35.7891 163.543 36.1484C163.324 36.5078 163.043 36.8438 162.699 37.1562C162.355 37.4688 161.941 37.7266 161.457 37.9297C160.973 38.1328 160.41 38.2344 159.77 38.2344C158.949 38.2344 158.215 38.0703 157.566 37.7422C156.918 37.4141 156.406 36.9648 156.031 36.3945C155.656 35.8242 155.469 35.1758 155.469 34.4492C155.469 33.7773 155.594 33.1836 155.844 32.668C156.094 32.1523 156.465 31.7188 156.957 31.3672C157.449 31.0078 158.059 30.7383 158.785 30.5586C159.52 30.3711 160.359 30.2773 161.305 30.2773H163.391ZM174.863 25.3203V27.5469H167.598V25.3203H174.863ZM169.543 22.2031H172.648V34.3438C172.648 34.7188 172.699 35.0078 172.801 35.2109C172.902 35.4141 173.055 35.5508 173.258 35.6211C173.461 35.6914 173.703 35.7266 173.984 35.7266C174.188 35.7266 174.375 35.7148 174.547 35.6914C174.719 35.668 174.863 35.6445 174.98 35.6211L174.992 37.9414C174.734 38.0273 174.441 38.0977 174.113 38.1523C173.793 38.207 173.43 38.2344 173.023 38.2344C172.328 38.2344 171.719 38.1172 171.195 37.8828C170.672 37.6406 170.266 37.2539 169.977 36.7227C169.688 36.1836 169.543 35.4727 169.543 34.5898V22.2031Z" fill="white"/>
</svg>
