<svg width="12" height="15" viewBox="0 0 12 15" fill="none" xmlns="http://www.w3.org/2000/svg">
<path id="Vector" fill-rule="evenodd" clip-rule="evenodd" d="M2.83 0.5H9.17C9.94267 0.5 10.3287 0.5 10.6407 0.614098C10.9347 0.723801 11.2008 0.903095 11.4182 1.13809C11.6357 1.37309 11.7987 1.65749 11.8947 1.96927C12 2.30666 12 2.72385 12 3.55893V13.3615C12 13.9621 11.3433 14.2813 10.928 13.8823C10.8115 13.7693 10.6587 13.7065 10.5 13.7065C10.3413 13.7065 10.1885 13.7693 10.072 13.8823L9.75 14.1917C9.54586 14.3899 9.27804 14.5 9 14.5C8.72196 14.5 8.45414 14.3899 8.25 14.1917C8.04586 13.9935 7.77804 13.8834 7.5 13.8834C7.22196 13.8834 6.95414 13.9935 6.75 14.1917C6.54586 14.3899 6.27804 14.5 6 14.5C5.72196 14.5 5.45414 14.3899 5.25 14.1917C5.04586 13.9935 4.77804 13.8834 4.5 13.8834C4.22196 13.8834 3.95414 13.9935 3.75 14.1917C3.54586 14.3899 3.27804 14.5 3 14.5C2.72196 14.5 2.45414 14.3899 2.25 14.1917L1.928 13.8823C1.81148 13.7693 1.65865 13.7065 1.5 13.7065C1.34135 13.7065 1.18852 13.7693 1.072 13.8823C0.656667 14.2813 0 13.9621 0 13.3615V3.55893C0 2.72385 -9.93411e-09 2.30596 0.105333 1.96997C0.305333 1.33088 0.768667 0.829693 1.35933 0.614098C1.67133 0.5 2.05733 0.5 2.83 0.5ZM2.66667 3.82493C2.53406 3.82493 2.40688 3.88024 2.31311 3.97869C2.21935 4.07715 2.16667 4.21068 2.16667 4.34992C2.16667 4.48915 2.21935 4.62268 2.31311 4.72114C2.40688 4.81959 2.53406 4.8749 2.66667 4.8749H3C3.13261 4.8749 3.25978 4.81959 3.35355 4.72114C3.44732 4.62268 3.5 4.48915 3.5 4.34992C3.5 4.21068 3.44732 4.07715 3.35355 3.97869C3.25978 3.88024 3.13261 3.82493 3 3.82493H2.66667ZM5 3.82493C4.86739 3.82493 4.74022 3.88024 4.64645 3.97869C4.55268 4.07715 4.5 4.21068 4.5 4.34992C4.5 4.48915 4.55268 4.62268 4.64645 4.72114C4.74022 4.81959 4.86739 4.8749 5 4.8749H9.33333C9.46594 4.8749 9.59312 4.81959 9.68689 4.72114C9.78066 4.62268 9.83333 4.48915 9.83333 4.34992C9.83333 4.21068 9.78066 4.07715 9.68689 3.97869C9.59312 3.88024 9.46594 3.82493 9.33333 3.82493H5ZM2.66667 6.27487C2.53406 6.27487 2.40688 6.33019 2.31311 6.42864C2.21935 6.52709 2.16667 6.66063 2.16667 6.79986C2.16667 6.9391 2.21935 7.07263 2.31311 7.17109C2.40688 7.26954 2.53406 7.32485 2.66667 7.32485H3C3.13261 7.32485 3.25978 7.26954 3.35355 7.17109C3.44732 7.07263 3.5 6.9391 3.5 6.79986C3.5 6.66063 3.44732 6.52709 3.35355 6.42864C3.25978 6.33019 3.13261 6.27487 3 6.27487H2.66667ZM5 6.27487C4.86739 6.27487 4.74022 6.33019 4.64645 6.42864C4.55268 6.52709 4.5 6.66063 4.5 6.79986C4.5 6.9391 4.55268 7.07263 4.64645 7.17109C4.74022 7.26954 4.86739 7.32485 5 7.32485H9.33333C9.46594 7.32485 9.59312 7.26954 9.68689 7.17109C9.78066 7.07263 9.83333 6.9391 9.83333 6.79986C9.83333 6.66063 9.78066 6.52709 9.68689 6.42864C9.59312 6.33019 9.46594 6.27487 9.33333 6.27487H5ZM2.66667 8.72482C2.53406 8.72482 2.40688 8.78013 2.31311 8.87859C2.21935 8.97704 2.16667 9.11057 2.16667 9.24981C2.16667 9.38904 2.21935 9.52258 2.31311 9.62103C2.40688 9.71949 2.53406 9.7748 2.66667 9.7748H3C3.13261 9.7748 3.25978 9.71949 3.35355 9.62103C3.44732 9.52258 3.5 9.38904 3.5 9.24981C3.5 9.11057 3.44732 8.97704 3.35355 8.87859C3.25978 8.78013 3.13261 8.72482 3 8.72482H2.66667ZM5 8.72482C4.86739 8.72482 4.74022 8.78013 4.64645 8.87859C4.55268 8.97704 4.5 9.11057 4.5 9.24981C4.5 9.38904 4.55268 9.52258 4.64645 9.62103C4.74022 9.71949 4.86739 9.7748 5 9.7748H9.33333C9.46594 9.7748 9.59312 9.71949 9.68689 9.62103C9.78066 9.52258 9.83333 9.38904 9.83333 9.24981C9.83333 9.11057 9.78066 8.97704 9.68689 8.87859C9.59312 8.78013 9.46594 8.72482 9.33333 8.72482H5Z" fill="#D9D9D9"/>
</svg>
