<svg width="10" height="12" viewBox="0 0 10 12" fill="none" xmlns="http://www.w3.org/2000/svg">
<path id="Vector" d="M6.42857 2.07455V3.53497C6.83285 3.7048 7.20428 3.94751 7.52571 4.25692C8.19999 4.90599 8.57142 5.76959 8.57142 6.68819C8.57142 7.6068 8.19999 8.46971 7.52571 9.11947C6.85142 9.76923 5.95428 10.1261 5 10.1261C4.04572 10.1261 3.14929 9.76854 2.47429 9.11947C1.79929 8.4704 1.42858 7.6068 1.42858 6.68819C1.42858 5.76959 1.80001 4.90668 2.47429 4.25692C2.79572 3.94751 3.16715 3.7048 3.57143 3.53497V2.07455C2.42049 2.40487 1.43151 3.12294 0.785344 4.09746C0.139179 5.07197 -0.120997 6.23782 0.0523925 7.38182C0.225782 8.52581 0.82115 9.5715 1.72963 10.3277C2.63811 11.0839 3.79899 11.5 5 11.5C6.20101 11.5 7.36189 11.0839 8.27037 10.3277C9.17885 9.5715 9.77422 8.52581 9.94761 7.38182C10.121 6.23782 9.86082 5.07197 9.21465 4.09746C8.56849 3.12294 7.57951 2.40487 6.42857 2.07455ZM4.28572 0.5H5.71428V6.00062H4.28572V0.5Z" fill="#F08234"/>
</svg>
